<?xml version="1.0" encoding="UTF-8" standalone="no"?>
<svg
   xmlns:dc="http://purl.org/dc/elements/1.1/"
   xmlns:cc="http://creativecommons.org/ns#"
   xmlns:rdf="http://www.w3.org/1999/02/22-rdf-syntax-ns#"
   xmlns:svg="http://www.w3.org/2000/svg"
   xmlns="http://www.w3.org/2000/svg"
   viewBox="0 0 1587.4 1122.52"
   height="1122.52"
   width="1587.4"
   xml:space="preserve"
   id="svg2"
   version="1.1"><metadata
     id="metadata8"><rdf:RDF><cc:Work
         rdf:about=""><dc:format>image/svg+xml</dc:format><dc:type
           rdf:resource="http://purl.org/dc/dcmitype/StillImage" /></cc:Work></rdf:RDF></metadata><defs
     id="defs6" /><g
     transform="matrix(1.3333333,0,0,-1.3333333,0,1122.52)"
     id="g10"><g
       transform="scale(0.1)"
       id="g12"><path
         id="path14"
         style="fill:#ffffff;fill-opacity:1;fill-rule:nonzero;stroke:none"
         d="M 11905.5,0 H 0 V 8418.9 H 11905.5 V 0" /><path
         id="path16"
         style="fill:#231f20;fill-opacity:1;fill-rule:nonzero;stroke:none"
         d="m 8719.72,5848.07 c -42.41,0 -85.59,-7.22 -125.99,-19.23 -133.06,-39.57 -254.65,-156.77 -217.92,-296.01 3.89,-14.75 10.61,-28.23 18.87,-41.28 -11.97,114.37 147.9,210.06 167.88,221.54 106.82,61.37 195.28,79.04 270.42,53.99 55.64,-18.54 102.65,-59.3 144.32,-126.03 -6.04,21.71 -12.18,40.41 -17.7,54.49 -44.03,112.29 -139.76,152.53 -239.88,152.53 z m 204.25,-374.05 c 37.72,0 55.97,-17.26 64.78,-33.16 22.75,-41.06 0.52,-108.18 -24.4,-155.79 6.89,5 12.95,11.4 18.25,19.23 27.4,40.58 30.99,111.2 23.87,183.03 -5.79,15.23 -11.85,30.2 -18.14,44.82 -47.6,110.74 -102.55,175.18 -168,196.99 -63.68,21.22 -141.48,4.62 -237.85,-50.74 -68.36,-39.27 -175.17,-126.86 -141.91,-206.04 18.43,-43.87 186.7,-81.77 250.04,-96.03 11.63,-2.62 21.7,-4.89 29.62,-6.81 10.4,-2.52 19.34,-4.98 27.32,-7.17 35.83,-9.87 45.48,-12.53 85.16,8.31 4.45,2.33 8.32,18.62 10.87,29.39 6.22,26.17 15.63,65.73 58.01,72.18 8.14,1.23 15.58,1.79 22.38,1.79 z m -5353.39,38.39 c -14.67,-12.11 -31.45,-25.37 -49.32,-39.48 -95.39,-75.32 -239.55,-189.16 -222.79,-260.78 3.2,-13.7 12.85,-25.28 26.26,-35.03 24.83,49.65 67.17,93.71 108.81,137.04 57.11,59.43 115.82,120.52 137.04,198.25 z m 4927.01,-351.43 c 60.35,0 78.16,-42.9 92.94,-78.48 11.18,-26.92 21.75,-52.35 48.19,-66.62 59.45,-32.06 175.34,32.61 218.97,56.96 58.95,32.9 140.27,85.26 165.62,159.9 4.69,13.8 4.42,38.83 2.64,66.95 -3.06,-6.27 -6.45,-12.22 -10.21,-17.78 -22.02,-32.61 -55.34,-50.05 -96.36,-50.43 -7.57,0.16 -15.01,4.46 -18.32,11.57 -3.31,7.11 -2.14,15.5 2.96,21.46 27.71,32.29 68.68,122.81 49.74,156.96 -6.17,11.15 -21.69,14.93 -46.17,11.2 -14.22,-2.15 -18.56,-14.41 -25.09,-41.87 -4.98,-20.98 -10.63,-44.77 -31.2,-55.56 -51.51,-27.03 -72.3,-23.03 -114.38,-11.46 -7.61,2.1 -16.16,4.46 -26.1,6.86 -7.75,1.88 -17.62,4.1 -29,6.67 -83.71,18.85 -172.24,40.86 -227.32,71.63 10.57,-17.12 19.31,-35.73 23.98,-57.12 7.25,-33.32 4.84,-68.23 2.28,-105.19 -1.99,-28.75 -4.04,-58.3 -1.06,-86.8 6.34,0.78 12.3,1.15 17.89,1.15 z m -5647.42,195.4 c 2.71,0 5.45,-0.55 8.03,-1.68 7.05,-3.1 11.7,-9.97 11.95,-17.67 3.6,-110.39 41.31,-249.1 117.3,-334.17 0.84,117.08 34.57,238.28 75.8,318.58 19.22,37.42 64.46,85.34 116.85,140.83 94.71,100.32 212.58,225.17 172.4,293.51 -19.31,32.85 -46.6,50.2 -83.42,53.02 -126.98,9.73 -320.85,-154.02 -373.03,-217.92 -69.8,-85.46 -125.33,-148.94 -191.58,-203.32 -19.32,-83.95 -16.85,-186.52 66.77,-266.36 -7.71,77.46 4.09,177.12 65.87,230.33 3.7,3.19 8.35,4.85 13.06,4.85 z m 178.5,-391.23 c 41.36,-30.22 88.47,-44.03 140.43,-41.07 -23.4,39.55 -25.36,84.17 -27.14,124.51 -0.68,15.31 -1.31,29.76 -3.06,43.2 -1,7.64 2.49,15.18 8.96,19.37 6.47,4.18 14.78,4.29 21.34,0.24 1.85,-1.13 3.66,-2.29 5.45,-3.46 -10.69,61.38 -11.5,122.86 0.56,171.75 31.53,127.81 123.82,177.83 213.07,226.2 56.65,30.7 110.15,59.69 150.06,107.62 37.34,44.85 45.43,90.62 24.05,136.03 -43.71,92.86 -198.41,164.52 -302.81,164.52 -0.26,0 -0.52,0 -0.79,0 -180.43,-0.63 -438.94,-225.18 -530.34,-451.28 44.4,42.85 86.74,92.34 136.62,153.41 44.7,54.72 251.64,244.39 407.07,232.5 50.13,-3.86 88.77,-28.29 114.85,-72.64 55.4,-94.23 -68.5,-225.46 -177.81,-341.24 -48.2,-51.05 -93.73,-99.27 -110.34,-131.64 -44.8,-87.22 -77.45,-219.65 -70.17,-338.02 z m 217.81,37.37 c 13.85,-34.1 30.72,-64.21 49.69,-86.34 30.67,-35.78 67.37,-59.6 106.31,-84.12 -26.43,83.12 -48.32,163.82 -7.71,272.88 -17.86,4.57 -33.92,9.71 -48.24,15.45 -7.12,-31.88 -3.93,-66.18 14.37,-104.99 2.67,-5.67 2.53,-12.26 -0.38,-17.81 -2.91,-5.55 -8.25,-9.42 -14.43,-10.44 -41.88,-6.97 -73.46,1.2 -99.61,15.37 z m 4587.18,-217.26 c -7.2,-21.52 -11.23,-41.69 -11.57,-59.79 23.73,1.14 46.8,5.1 69.48,11.17 -20.9,40.88 -37.87,49.28 -47.37,50.03 -3.39,0.26 -6.92,-0.23 -10.54,-1.41 z M 5670.15,4618.47 c 86.39,-17.33 163.27,36.16 244.37,92.56 34.98,24.33 70.85,49.27 108.01,68.39 -18.25,8.23 -36.93,16.37 -56.24,24.78 l -24.57,10.74 c -8.41,3.68 -13.23,12.62 -11.69,21.68 1.55,9.05 9.06,15.89 18.22,16.58 26.06,1.95 61.78,12.33 94.42,29.72 -31.54,5.69 -67.03,15.45 -92.82,27.49 -63.39,29.6 -114.13,78.83 -163.21,126.44 -80.44,78.04 -156.43,151.74 -278.68,129.2 -57.43,-10.59 -102.13,-42.78 -132.85,-95.69 -56.34,-96.98 -52.39,-243.43 -19.37,-337.96 4.55,-13.04 9.18,-24.8 14,-35.47 -12.87,114.38 4.94,262.8 75.94,346.22 47.26,55.52 112.15,75.34 187.65,57.4 57.33,-13.65 96.83,-40.58 117.4,-80.04 42.36,-81.23 -3.38,-197.16 -43.73,-299.44 -14.65,-37.12 -28.63,-72.55 -36.85,-102.6 z m -2635.59,295.57 c 9.67,-55.7 30.04,-105.85 64.45,-143.38 85.27,-92.99 221.48,-149.35 331.65,-190.62 11.67,26.78 16.76,57.47 11.91,95.29 -4.49,34.97 -12.46,66.9 -21.47,97.39 -11.27,7.46 -22.76,14.68 -34.36,21.98 -41.73,26.24 -84.87,53.37 -120.93,95.44 -32.8,38.25 -59.48,94.65 -76.92,155.69 -2.36,2.05 -4.7,4.09 -7.04,6.1 0.03,-0.53 0.04,-1.06 0.07,-1.58 2.1,-47.85 4.1,-93.04 38.58,-127.78 5.23,-5.27 7.11,-12.99 4.9,-20.07 -2.22,-7.08 -8.17,-12.35 -15.47,-13.69 -64.36,-11.86 -123.16,-3.36 -175.37,25.23 z m 3370.58,-62.17 c -29.8,0 -58.88,-4.03 -85.62,-12.35 -152.28,-47.3 -196.01,-264.55 -173.72,-424.51 84.09,114.99 205.64,252.63 308.76,258.11 106.28,5.73 129.47,-44.41 151.97,-92.82 10.48,-22.54 21.31,-45.84 41.49,-65.88 11.71,-11.62 18.37,-24.99 23.24,-34.75 0.38,-0.77 0.79,-1.6 1.22,-2.44 3.99,3.88 10.14,10.64 19.28,22.33 10.74,13.79 17.44,106.16 11.95,136.72 -12.11,67.55 -54.75,126.62 -120.07,166.32 -52.95,32.18 -117.22,49.27 -178.5,49.27 z m -954.19,-286.28 c 27.38,-51.22 61.82,-94.22 95.35,-136.09 9.36,-11.7 18.77,-23.44 28.06,-35.41 17.32,7.33 35.32,18.61 53.68,35.04 42.84,38.34 43.45,57.08 41.73,63.37 -6.76,24.58 -75.64,38.08 -116.8,46.15 -9.69,1.9 -18.9,3.71 -27.21,5.53 -28.28,6.22 -52.99,12.89 -74.81,21.41 z m -1982.7,0.5 c 58.08,-22 116.52,-64.68 173.04,-105.96 41.51,-30.32 81.63,-59.62 119.71,-79.87 -16.73,17.74 -33.11,34.3 -49.2,50.55 -59.55,60.18 -115.8,117.03 -166.19,211.63 -21.07,39.55 -45.88,68.24 -72.98,91.79 3.89,-17.14 7.2,-34.99 9.62,-53.81 5.81,-45.35 -0.44,-82.43 -14,-114.33 z M 1358.66,4382.88 c -1.1,-7.02 -1.68,-14.8 -1.75,-23.1 6.13,2.79 12.11,5.69 17.95,8.71 -4.04,5.8 -9.42,10.57 -16.2,14.39 z m 4815.78,-75.98 c 1.73,-4.16 3.53,-8.24 5.37,-12.23 3.74,8.01 6.88,16.08 9.19,24.28 -2.44,-1.99 -4.86,-4.01 -7.26,-6.01 -2.4,-2 -4.84,-4.03 -7.3,-6.04 z m -2305.67,5.95 c 7.68,-12.58 12.28,-23.65 14.15,-34.28 21.41,15.74 44.65,28.91 68.99,40.13 -4.55,-0.39 -9.08,-0.79 -13.57,-1.18 -24.42,-2.14 -48.06,-4.21 -69.57,-4.67 z m -2508.54,4.8 c 2.39,-15.31 6.03,-31.07 10.85,-46.29 7.74,20.1 12.64,39.73 13.3,57.18 -7.82,-3.81 -15.85,-7.45 -24.15,-10.89 z m 5116.94,227.12 c -2.51,0 -5.03,-0.11 -7.56,-0.33 -43.16,-3.71 -79.13,-39.59 -98.67,-98.44 -25.78,-77.64 -22.65,-191.06 27.21,-246.47 3.8,-4.21 7.52,-8.07 11.2,-11.58 40.51,17.86 80.8,50.73 117.56,96.95 56.51,71.03 71.36,144.49 40.76,201.56 -19.36,36.06 -54.26,58.31 -90.5,58.31 z m -274.06,-291.55 c 28.27,-41.6 64.57,-68.63 106.08,-77.63 18.7,-4.07 37.98,-4.28 57.49,-0.84 -60.15,69.22 -62.4,197.42 -33.71,283.86 24.81,74.72 73.37,120.53 133.21,125.69 46.13,4 91.42,-17.34 121.47,-55.57 -6.78,11.87 -12.24,23.63 -17.4,34.72 -21.43,46.11 -34.36,73.85 -113.56,69.73 -84.1,-4.48 -202.58,-132.94 -300.28,-272.13 1.23,-4.72 2.52,-9.37 3.85,-13.95 13.38,11.08 27.4,22.17 44.26,30.05 5.92,2.76 12.85,2.46 18.52,-0.82 5.66,-3.29 9.35,-9.15 9.88,-15.68 3.28,-40.5 -10.93,-75.09 -29.81,-107.43 z m -1933.89,50.18 c 0.69,-12.46 0.19,-24.75 -0.29,-36.55 -1.12,-27.26 -2.07,-50.81 11.19,-69.89 32.14,-46.19 104.7,-45.41 163.11,-44.84 7.22,0.08 14.22,0.17 20.96,0.14 0.37,0 0.74,0 1.09,0 66.12,0 131.41,12.23 194.57,24.05 71.28,13.35 144.93,27.17 221.08,23.86 1.5,-0.06 130.6,-9.75 182.22,-38.25 -75.81,83.72 -265.49,80.24 -392.94,77.93 -19.38,-0.36 -37.48,-0.69 -53.77,-0.71 -111.67,0.25 -293.5,8.73 -347.22,64.26 z m 5417.1,627.28 c -24.19,0 -47.89,-3.53 -70.82,-10.64 -75.13,-23.28 -140.74,-85.16 -184.77,-174.24 -91.77,-185.67 -45.32,-416.05 -11.4,-584.25 2.73,-13.57 5.42,-27.05 8.09,-40.46 23.17,9.38 43.59,21.81 60.69,37.9 49.09,46.16 67.72,119.74 56.96,224.96 -1.52,14.78 -3.7,32.07 -6.11,51.14 -15.93,125.87 -40,316.09 41.44,405.45 30.37,33.33 72.19,49.36 124.85,47.61 46.32,-1.54 87.12,-29.99 123.13,-55.08 53.07,-37 85.64,-56.95 121.7,-27.1 -32.42,30.05 -70.17,57.29 -115.7,82.81 -49.61,27.82 -99.79,41.9 -148.06,41.9 z m -511.89,-829.53 c 80.03,-7.25 154.04,-7.29 214.65,7.66 -2.96,14.85 -5.94,29.79 -8.97,44.83 -35.05,173.86 -83.05,411.97 14.76,609.88 48.93,99.02 123.08,168.17 208.79,194.73 79.45,24.61 166,12.66 250.28,-34.57 46.18,-25.89 85,-53.74 118.57,-84.27 21.22,61.72 -6.07,171.47 -32,222.8 -1.91,3.77 -3.89,7.48 -5.95,11.15 -109.16,21.38 -224.72,22.95 -297.56,1.21 -187.15,-55.88 -366.74,-242.33 -436.73,-453.4 -50.79,-153.18 -59.91,-357.51 -25.84,-520.02 z M 3833.81,4164 c 55.02,-51.04 166.82,-90.73 242.53,-68.46 42.75,12.55 68.5,43.01 76.55,90.52 8.32,49.15 2.68,84.76 -16.78,105.84 -13.96,15.13 -35.02,23.41 -59.91,27.5 -87.63,-22.63 -171.73,-56.35 -223.82,-126.32 -3.02,-4.72 -6.24,-9.64 -9.64,-14.81 -2.11,-3.23 -4.3,-6.56 -6.57,-10.02 -0.79,-1.4 -1.59,-2.84 -2.36,-4.25 z m 1948.48,334.9 c -4.64,0 -13.04,-5.15 -23.96,-19.84 -12.63,-17.02 4.55,-80.73 51.06,-189.35 3.36,-7.83 6.24,-14.57 8.41,-19.87 5.36,-13.1 11.49,-29.32 18.58,-48.11 18.21,-48.24 44.98,-119.14 77.96,-182.21 17.82,24.66 26.41,52.03 17.8,102.35 -6.06,35.37 -27,79.38 -47.25,121.94 -16.64,34.97 -33.85,71.13 -43.5,103.88 -1.12,3.8 -2.47,8.84 -4.06,14.77 -13.64,50.98 -34.1,112.54 -54.04,116.35 -0.31,0.06 -0.65,0.09 -1,0.09 z M 3717.8,4150.12 c -28.24,-37.95 -49.71,-81.26 -55.36,-117.01 52.8,20.32 90.06,78.67 123.43,130.94 3.8,5.96 7.54,11.82 11.24,17.52 1.68,2.58 3.32,5.1 4.93,7.56 5.48,9.55 11.41,18.57 17.75,27.12 31.78,49.17 32.37,58.64 -2.19,100.16 -64.89,12.81 -130.55,60.77 -199.89,111.42 -55.09,40.23 -112.05,81.82 -165.66,101.61 -0.99,0.37 -1.99,0.73 -2.98,1.1 -22.4,-34.08 -52.67,-62.37 -82.48,-90.21 -33.02,-30.85 -67.16,-62.76 -90.58,-102.56 -0.62,-1.04 -1.22,-2.07 -1.82,-3.11 35,1.17 78.12,-8.48 130.72,-35.48 33.87,-17.39 64.29,-36.91 93.7,-55.77 73.28,-47 130.01,-83.44 194.67,-60.26 34.23,43.55 76.25,79.38 116.01,93 8.46,2.9 17.82,-0.18 22.92,-7.54 5.09,-7.35 4.68,-17.2 -1.01,-24.1 -40.57,-49.23 -78.03,-78.85 -113.4,-94.39 z m -2396.21,153.57 c -16.18,-5.05 -33.27,-9.42 -51.38,-13.06 -192.42,-38.65 -362.901,-88.99 -340.19,-273.62 100.88,14.68 253.3,58.46 329.5,103.88 27.05,16.13 61.62,56.24 87.53,100.93 -12.11,25.47 -20.63,53.96 -25.46,81.87 z m 6461.18,434.13 c -24.54,-33.59 -49.31,-78.76 -70.03,-116.52 -12.71,-23.17 -24.71,-45.05 -36.69,-65.07 -41.63,-69.57 -99.49,-131.16 -155.43,-190.71 -56.92,-60.58 -115.77,-123.22 -155.59,-192.8 -28.63,-50.05 -23.21,-89.73 -17.48,-131.73 1.71,-12.53 3.44,-25.21 4.3,-38.2 30.82,29.1 63.78,56.27 92.02,79.53 17.65,14.55 32.91,27.12 42.32,35.97 67.07,63.15 115.57,139.22 162.46,212.78 47.79,74.96 97.2,152.47 166.8,218.28 34.34,32.47 72.42,62.4 113.12,89.06 -3.9,14.06 -9.23,29.73 -15.76,47.93 -1.68,4.68 -3.34,9.16 -4.99,13.42 -33.67,-9.57 -68.21,-15.25 -104.93,-14.59 -9.9,0.16 -18.2,7.54 -19.51,17.35 -1.5,11.22 -1.66,23.02 -0.61,35.3 z m 574.82,-731.08 c 14.37,-6.66 28.97,-11.83 43.8,-16.04 -0.9,159.27 17.69,320.05 66.69,477.37 l 1.64,5.28 c 32.39,103.92 81.33,260.96 23.65,342.74 -25.45,36.09 -69.47,54.89 -134.58,57.51 -94.26,3.75 -178.58,-42.17 -267.83,-90.81 -47.02,-25.63 -94.91,-51.73 -145.11,-70.48 1.55,-4.04 3.09,-8.2 4.62,-12.47 5.12,-14.28 9.55,-27.39 13.2,-39.63 30.97,18.2 63.18,34.53 96.19,48.69 15.21,6.52 43.62,21.9 73.69,38.19 78.05,42.26 135.47,72.37 163.72,74.77 24.38,2.11 45.04,-4.68 61.45,-20.09 47.68,-44.76 45.27,-154.65 43.16,-251.61 -0.94,-43.44 -1.84,-84.48 2.2,-111.02 15.35,-100.74 -2.36,-187.98 -21.12,-280.36 -9.86,-48.56 -20.04,-98.67 -25.37,-152.04 z M 8522,4116.39 c 20.95,-104.73 307.41,-146.83 447.93,-167.47 33.27,-4.89 62,-9.11 81.65,-13.1 47.55,-9.63 90.11,-16.5 130.99,-20.86 -8.74,36.72 -18.65,73.53 -30.03,110.57 -3.86,12.56 -7.41,25.47 -10.68,38.71 -69.06,7.47 -141.14,19.36 -212.48,31.12 -162.09,26.73 -315.6,52.07 -407.38,21.03 z M 5892.34,3953.91 c 18.59,-22.17 38.42,-34.23 59.8,-42.29 -16.02,16.88 -31,36.97 -45.01,59.02 -4.93,-5.38 -9.88,-10.9 -14.79,-16.73 z m 3332.17,-42.57 c 44.59,-2.93 88.54,-2.88 136.37,-0.19 19.21,1.07 40.82,3.24 63.69,5.53 1.82,0.19 3.65,0.37 5.48,0.56 -12.34,50.64 -22.79,100.89 -33.16,152.46 -61.97,-14.9 -134.82,-15.75 -212.71,-9.47 2.09,-7.79 4.29,-15.44 6.6,-22.96 12.98,-42.26 24.09,-84.19 33.73,-125.93 z m -1800.38,102.33 c 11.1,-3.36 22.35,-9.05 33.69,-17.04 45.88,-32.33 56.27,-86.83 29.24,-153.47 -3.49,-8.62 -7.57,-17.31 -12.18,-26.06 57.94,67.16 105.59,192.1 143.97,292.7 28.21,73.94 52.58,137.81 77.16,173.4 27.33,39.59 63.11,71.77 97.71,102.89 30.75,27.67 59.8,53.8 83.68,84.84 42.86,55.72 59.69,86.9 58.61,124.32 -33.29,-22.84 -64.55,-47.98 -93.08,-74.96 -66.01,-62.42 -111.92,-134.45 -160.55,-210.72 -48.21,-75.63 -98.07,-153.83 -168.77,-220.4 -10.38,-9.77 -26.1,-22.72 -44.3,-37.73 -13.33,-10.98 -28.87,-23.78 -45.18,-37.77 z m -335.75,-169.23 c 2.79,-24.71 11.79,-49.74 35.46,-58.1 33.25,-11.74 87.28,11.56 122.73,52.3 0.05,1.98 0.17,3.97 0.35,5.97 -31.48,-5.93 -66.68,-4.03 -101.37,-2.17 -18.77,1.02 -37.98,2.52 -57.17,2 z m 2392,37.3 c 1.79,-6.7 3.62,-13.41 5.51,-20.13 7,-25.1 18.58,-52.74 31.55,-81.94 34.71,14.65 63.19,31.18 82.08,49.56 15.59,15.16 22.83,30.11 21.97,45.44 -37.37,12.4 -89.2,11.27 -141.11,7.07 z m -2192.74,-55.28 c 5.65,-24.27 34.91,-42.9 86.93,-55.36 6.61,-1.59 13.18,-2.23 19.55,-2.05 23.85,28.31 43.62,58.93 55.87,89.14 19.89,49.04 14.78,84.62 -15.21,105.75 -16.34,11.52 -30.51,15.53 -43.31,12.25 -17.7,-4.52 -33.42,-22.33 -47.41,-44.43 -1.04,-3.23 -2.2,-6.49 -3.49,-9.79 -6.31,-16.19 -14.22,-29.26 -23.41,-39.78 -1.41,-2.85 -2.78,-5.66 -4.15,-8.45 -9.03,-18.38 -17.06,-34.76 -25.37,-47.28 z m -505.62,16.38 c -21.7,-13.79 -35.31,-42.32 -43.47,-78.46 17.64,17.46 40.09,37.82 65.82,54.76 -7.25,8.07 -14.77,15.98 -22.35,23.7 z m -4683.72,15.75 c -1.18,-32.87 20.05,-68.86 61.87,-106.64 -0.16,39.08 -1.8,80.49 -21.62,97.22 -8.85,7.47 -22.36,10.71 -40.25,9.42 z m 7135.14,12.12 c 10.91,-52.15 19.69,-104.09 27.09,-156.18 76.81,11.55 155.21,28.57 219.5,50.85 -12.97,29.29 -25.18,58.64 -32.67,85.46 -2.55,9.1 -5,18.16 -7.38,27.19 -3.83,-0.38 -7.63,-0.76 -11.42,-1.14 -23.32,-2.35 -45.35,-4.55 -65.43,-5.69 -45.46,-2.54 -87.47,-2.8 -129.69,-0.49 z M 6866,3806.66 c 21.37,-29.64 37.49,-61.24 42.21,-94.32 27.35,5.95 54.53,23.62 76.76,50.36 2.2,2.65 4.32,5.34 6.35,8.08 -13.59,15.27 -28.81,27.96 -47.72,36.01 -25.94,11.04 -52.04,9.43 -77.6,-0.13 z m 1575.49,174.78 c 17.26,-3.25 34.83,-5.82 52.75,-8.44 56.25,-8.23 114.41,-16.74 170.29,-48.62 47.65,-27.2 87.66,-65.57 126.34,-102.67 52.51,-50.36 102.1,-97.92 167.69,-117.51 39.56,-11.81 145.94,-9.98 262.33,4.85 -7.82,55.01 -17.2,109.81 -29.01,164.76 -46.25,4.36 -94.13,11.84 -148.25,22.81 -18.58,3.76 -46.82,7.91 -79.52,12.72 -181.41,26.66 -485.05,71.27 -483.32,220.58 0.1,7.9 4.84,15.01 12.09,18.13 100.53,43.25 266.87,15.82 443.01,-13.21 66.14,-10.92 132.97,-21.94 196.92,-29.37 -32.31,167.09 -22,373 29.49,528.28 62.44,188.29 229.89,409.47 463.26,479.15 69.49,20.75 173.54,22.29 277.17,6.52 -87.08,104.99 -240.93,161.38 -356.19,195.95 -33.11,9.93 -67.43,16.24 -100.61,22.36 -55.23,10.16 -112.33,20.68 -166.33,48.04 -17.87,9.06 -39.29,26.5 -64.08,46.69 -43.38,35.33 -108.95,88.71 -138.25,69.78 -10.39,-6.68 -15.64,-23.3 -17.9,-44.62 45.26,-135.83 91.58,-357.74 -28.17,-486.04 -89.79,-96.21 -284.9,-125.84 -399.38,-88.08 -87.11,28.75 -131.84,93.88 -175.09,156.87 -31.22,45.47 -60.71,88.41 -105.31,119.01 -70.15,48.13 -172.14,-0.92 -226.68,-34.45 -116.67,-71.7 -224.9,-194.43 -274.39,-298.69 30.24,-3.8 56.13,-28.71 79.76,-77.25 47.51,17.58 93.89,42.86 141.71,68.92 90.09,49.11 183.23,99.86 288.57,95.66 77.29,-3.1 133.02,-28.14 165.66,-74.43 69.06,-97.9 16.59,-266.28 -18.14,-377.69 l -1.65,-5.28 c -48.58,-156.01 -66.44,-316.03 -64.77,-474.73 z m 1561.71,827.81 c 64.3,-68.23 108.2,-149.36 151.5,-249.99 20.5,-47.54 48,-96.02 74.5,-142.9 50.6,-89.39 102.9,-181.83 116.9,-281.31 6.9,-48.51 0.3,-91.72 -6.2,-133.48 -6.2,-40.47 -12,-78.7 -3.9,-116.31 1.6,-7.37 14.5,-29.71 23,-44.5 9.9,-17.14 19.3,-33.34 23.5,-44.82 5.2,-14.13 6.9,-31.64 8.7,-50.18 2.6,-26.9 5.5,-57.38 19.5,-67.32 11.4,-8.2 25.4,-10.75 42.7,-7.83 46.4,7.91 103.8,54.86 132.5,95.68 49.5,70.3 37.3,132.7 13,211.98 -143,106.51 -175.7,289.43 -210.3,482.97 -34.2,191.24 -69.6,388.99 -218,515.44 -43.6,37.2 -111.4,66.07 -186.12,85.38 24.72,-59.54 56.32,-180.26 18.72,-252.81 z M 7040.42,3773.42 c 7.35,-10.03 14.31,-20.34 21.19,-30.56 30.87,-45.82 60.04,-89.09 120.76,-98.69 47.12,-7.51 119.01,32.21 178.26,89.16 -51.22,12.95 -85.44,33.2 -102.18,60.36 -45.48,-41.18 -104.85,-60.31 -147.93,-45.06 -16.93,5.97 -42.13,21.12 -55,59.35 -3.91,-11.73 -8.97,-23.32 -15.1,-34.56 z m -3838.77,489.11 c -0.62,-0.64 -1.24,-1.3 -1.86,-1.96 -71.9,-77.83 -57.17,-258.07 2.96,-355.41 54.01,-87.41 98.32,-182.6 132.46,-282.34 34.55,11.32 65.96,24.57 90.46,40.78 34.08,22.55 51.86,40.41 52.84,53.07 1.17,15.04 -22.28,36.43 -51.97,63.51 -9.93,9.05 -20.69,18.88 -31.94,29.7 -164.32,158.11 -228.9,309.92 -192.95,452.65 z m 2487.02,-284.78 c -13.95,-96.14 -51.57,-171.7 -92.99,-254.9 -18.42,-37.02 -37.46,-75.26 -55.7,-117.83 10.9,14.93 21.86,29.34 32.56,43.41 39.91,52.44 77.61,101.98 100.5,163.75 11.97,32.29 13.26,81.65 14.51,129.38 0.32,12.26 0.64,24.38 1.12,36.19 z m 275.63,-156.37 c 3.56,0 7.12,-0.96 10.26,-2.83 23.23,-13.89 42.73,-28.37 45.81,-64.98 1.22,-14.57 -4.13,-35.1 -10.92,-61.09 -9.12,-34.94 -24.38,-93.41 -8.05,-108.04 4.29,-3.87 19.51,-10.84 67.74,7.59 33.18,12.68 45.56,50.73 49.99,72.28 11.47,55.83 -2.63,123.96 -31.41,151.88 -28.34,27.51 -61.07,35.02 -95.72,42.97 -39.93,9.16 -84.58,19.42 -123.82,61.71 -2.24,-3.59 -4.44,-7.33 -6.6,-11.24 -35.33,-63.77 -26.15,-146.02 2.63,-185.67 4.17,-5.73 15.01,-18.88 26.32,-16.69 14.99,2.9 37.15,30.42 54.37,98.98 1.54,6.14 5.9,11.19 11.74,13.61 2.46,1.01 5.06,1.52 7.66,1.52 z M 4856.42,3583.43 c 26.6,-22.81 53.59,-41.66 80.92,-57.09 -3.19,36.16 -2.97,73.77 1.51,113.31 6.85,60.39 40.98,126.31 77.11,196.1 51.91,100.25 105.4,203.56 72.21,286.07 1.5,-41.14 -40.11,-87.66 -77.54,-129.49 -15.8,-17.65 -30.71,-34.32 -37.12,-45.31 -48.3,-82.8 -77.28,-201.39 -102.85,-306.03 -4.8,-19.64 -9.51,-38.92 -14.24,-57.56 z m -2582.36,89.03 c 69.55,-39.88 158.72,-80.66 265.65,-120.98 183.52,-69.21 403.42,-27.75 574.47,16.11 21.62,5.54 45.6,10.92 71,16.62 36.48,8.2 75.04,16.86 111.77,27.07 -33.12,96.37 -76.03,188.36 -128.23,272.86 -68.78,111.33 -83.03,311.88 1.69,403.57 13.34,14.44 30.88,28.16 53.53,37.02 5.23,11.17 11.09,22.29 17.59,33.34 26.36,44.78 62.65,78.69 97.76,111.48 26.86,25.11 52.15,48.72 71.18,75.34 -112.96,42.52 -251.15,100.82 -340.94,198.74 -48.37,52.75 -72.36,124.33 -79.64,201.13 -96.32,80.85 -142.48,222.49 -155.81,338.61 -29.45,-56.44 -31.34,-140.86 -14.99,-205.65 2.03,-8.05 -1.12,-16.51 -7.91,-21.27 -6.8,-4.75 -15.84,-4.83 -22.7,-0.18 -101.13,68.53 -146.18,171.74 -130.91,295.63 -42.82,-30.13 -91.38,-58.09 -150.83,-86.54 -91.27,-43.66 -162.71,-106.04 -238.35,-172.09 -55.67,-48.6 -113.22,-98.87 -179.02,-140.46 -170.5,-107.79 -289.78,-207.04 -411.73,-342.59 -25.08,-27.88 -47.78,-55 -69.73,-81.23 -58.21,-69.54 -111.4,-133.09 -184.63,-178.86 5.28,-38.03 -8.3,-84.56 -30.59,-128.4 9.59,-16.23 20.97,-29.64 33.95,-38.08 61.52,-40.03 129.48,8.37 195.21,55.2 13.57,9.67 26.4,18.81 39.19,27.17 36.01,23.54 82.35,60.35 131.41,99.32 143.4,113.91 321.85,255.64 451.75,241.38 6.18,-0.68 11.68,-4.19 14.91,-9.5 3.22,-5.32 3.8,-11.83 1.54,-17.62 -13.25,-34.13 -27.73,-65.33 -41.74,-95.5 -33,-71.07 -64.16,-138.21 -69.51,-226.17 -7.28,-119.64 16.3,-156.31 55.37,-217.06 16.19,-25.19 34.55,-53.74 53.92,-92.9 40.54,-81.93 27.75,-180.34 15.37,-275.51 z M 4980.17,3505 c 148.15,-64.48 306.28,-40.07 471.42,-14.61 7.31,1.14 14.64,2.26 21.98,3.39 1.14,2.42 2.28,4.85 3.44,7.24 -1.36,33.28 5.19,70.35 24.73,116.29 19.14,45.03 38.96,84.84 58.13,123.36 61.02,122.56 109.21,219.36 90.49,389.4 -10.19,92.52 -46.52,157.33 -90.73,217.27 -40.49,-9.59 -82.36,-4.74 -123.22,14.91 -93.03,44.76 -165.43,160.88 -169.55,266.96 -62.71,-6.74 -127.96,-36.01 -196.64,-66.81 -64.3,-28.85 -130.79,-58.68 -196.88,-69.23 -46.73,-7.46 -100.59,-10.93 -157.6,-14.6 -121.26,-7.81 -258.7,-16.66 -345.99,-68.51 -78.37,-46.53 -76.82,-68.95 -75.71,-72.97 9.1,-33.09 146.81,-57.95 320.63,-57.95 0.58,0 1.15,0 1.73,0 16.08,0.02 33.95,0.35 53.08,0.7 141.83,2.61 356.23,6.52 436.26,-107.23 74.71,-106.17 6.19,-238.5 -54.26,-355.25 -34.39,-66.42 -66.87,-129.16 -72.89,-182.22 -5.17,-45.59 -4.13,-88.7 1.58,-130.14 z m 543.47,-44.2 c 5.84,-21.28 14.9,-42.96 25.36,-68.02 1.46,-3.49 2.93,-7.01 4.41,-10.56 33.6,6.15 61.24,17.11 78.47,34.83 14.26,14.66 20.4,33.7 18.59,57.88 -41.78,-2.72 -84.43,-8.02 -126.83,-14.13 z m -523.9,-17.23 c 27.9,0 56.38,-7.59 84.46,-15.07 21.76,-5.79 44.26,-11.79 68,-15.21 11.48,-1.65 27.03,-4.34 45.59,-7.55 54.97,-9.52 147.37,-25.51 234.46,-29.3 6.03,25.25 13.88,50.12 23,74.05 -155.67,-23.99 -315.14,-48.18 -466.71,8.22 1.15,-5.12 2.37,-10.25 3.64,-15.34 2.52,0.13 5.04,0.2 7.56,0.2 z m 491.2,-12.17 c -6.71,-18.25 -12.54,-36.93 -17.27,-55.76 13.2,0.1 26.09,0.56 38.53,1.48 -0.04,0.08 -0.07,0.16 -0.11,0.25 -7.79,18.65 -15.18,36.33 -21.15,54.03 z m 559.85,73.91 c -54.72,-69.64 -72.93,-138.15 -54.38,-204.48 27.65,65.78 60.67,144.7 54.38,204.48 z m 2953.69,-105.69 c 4.6,-51.69 20.84,-95.17 37.87,-140.76 2.27,-6.06 4.55,-12.19 6.83,-18.39 -10.01,97.26 -28.14,140.62 -44.7,159.15 z m -3539.17,-64.31 c -14.92,-91.98 -0.36,-183.04 68.52,-241.97 52.95,45.26 29.95,148.57 -0.03,229.79 -1.92,5.18 -3.84,10.22 -5.76,15.14 -20.05,-2.08 -41.03,-2.89 -62.73,-2.96 z m 1222.21,307.76 c -78.9,-112.07 -134.93,-260.58 -148.55,-400.95 -7.47,-77.16 1.48,-150.43 15.41,-221.35 4.32,0.49 8.58,1.05 12.79,1.68 163.87,24.45 153.14,157.62 140.73,311.81 -1.96,24.27 -3.98,49.36 -5.18,73.71 -0.74,14.98 -2.6,35.43 -4.76,59.11 -4.64,50.82 -10.41,114.01 -10.44,175.99 z M 6018.4,3249.45 c 82.86,-143.18 320.18,-234.6 495.71,-231.28 -13.96,72.31 -22.73,147.42 -14.94,227.82 16.46,169.75 88.66,344.54 191.17,466.52 7.39,82.18 30.89,152.08 88.93,173.32 7.31,2.68 15.47,0.87 20.96,-4.59 13.54,-13.43 27.14,-27.55 39.94,-42.23 36.49,16.36 77.27,22.4 119.1,4.58 21.06,-8.96 38.16,-21.76 52.95,-36.61 11.3,26.16 15.59,53.66 11.45,77.96 -23.84,139.9 -248.06,274.14 -388.16,262.92 -27.31,-2.16 -52.28,-9.47 -76.42,-16.54 -49.97,-14.61 -101.36,-29.66 -157.41,11 -33.86,-10.83 -67.96,-12.99 -100.98,-5.82 -46.88,10.17 -87.98,38.02 -120.61,80.37 -0.46,-0.68 -0.91,-1.37 -1.37,-2.06 -17.6,-26.62 -34.23,-51.76 -43.17,-78.94 -11.59,-35.19 -13.65,-72.9 -15.82,-112.82 -2.74,-50.02 -5.57,-101.74 -28.15,-150.72 -0.95,-2.06 -2.22,-3.92 -3.76,-5.51 9.42,-5.95 18.69,-13.13 27.76,-21.91 38.73,-37.58 57.11,-118.68 42.73,-188.65 -10.49,-51.06 -37.09,-87.15 -74.89,-101.59 -1.39,-0.53 -2.77,-1.04 -4.13,-1.55 34.14,-77.14 -10.5,-183.33 -46.44,-268.82 -5.09,-12.1 -10.02,-23.83 -14.45,-34.85 z m -1054.56,146.31 c -13.58,-6.73 -26.44,-18.23 -39.18,-36.34 -37.47,-53.24 -22.75,-125.96 -8.51,-196.29 4.9,-24.22 9.54,-47.09 12.02,-69.05 1.33,-11.74 2.38,-22.86 3.35,-33.31 3.91,-41.66 6.73,-71.75 22.72,-84.17 15.5,-12.06 48.37,-13.61 103.46,-4.93 27.09,4.27 53.09,11.68 79.34,20.42 -7.19,34.54 -18.11,68.13 -34.13,100.31 -11.03,22.14 -22.27,44 -33.43,65.71 -40.65,79.08 -80.13,155.88 -105.64,237.65 z M 2882.3,2918.89 c 0.08,-0.04 0.2,-0.08 0.28,-0.12 -6.23,38.67 -10.55,77.85 -14.54,117.43 -2.48,24.52 -1.13,56.59 0.29,90.55 2.47,58.61 5.47,129.9 -12.68,165.86 -30.95,-17.23 -50.8,-40.02 -60.48,-69.32 -28.18,-85.28 36.26,-211.95 87.13,-304.4 z m -458.75,-281.05 c -7.14,-20.87 -2.9,-43.42 5.95,-67.94 8.81,22.38 15.01,44.32 17.08,65.78 -7.69,1.01 -15.36,1.76 -23.03,2.16 z m 591.94,2.7 c 10.77,-28.98 19.54,-56.54 25.23,-83.98 0.99,6.98 0.32,20.12 -6.99,44.48 -3.59,11.96 -10,25.3 -18.24,39.5 z m 2986.09,561.8 c -24.63,-80.08 -25.97,-147.85 -27.51,-225.31 -0.72,-36.22 -1.46,-73.68 -4.73,-114.55 -2.69,-33.42 -22.72,-78.61 -45.92,-130.93 -33.99,-76.67 -76.29,-172.09 -47.77,-212.53 6.06,-8.59 18.61,-13.66 34.64,-16.64 4.64,18.14 9.86,36 15.4,53.83 -4.18,12.78 -5.45,24.77 -3,35.47 3.3,14.44 11.65,25.28 24.98,32.49 5.74,17.66 11.54,35.81 17.13,54.59 6.75,22.67 12.39,54.29 18.34,87.77 14.99,84.1 31.97,179.42 78.94,222.87 42.45,39.27 115.44,45.98 183.02,41.81 -99.35,39.04 -189.79,97.97 -243.52,171.13 z M 2926.27,2900.96 c 120.7,-51.59 230.54,-120.67 296.28,-246.91 24.66,-47.35 39.93,-98.45 45.84,-153.11 30.6,44.47 43.14,124.5 53.59,191.22 5.02,32.05 9.76,62.32 16.04,87.25 64.13,254.4 51.73,537.81 -28.57,793.85 -38.18,-10.71 -77.9,-19.62 -115.51,-28.07 -25.09,-5.64 -48.8,-10.96 -69.82,-16.35 -176.76,-45.32 -404.53,-87.96 -598.52,-14.78 -102.42,38.62 -188.12,76.95 -257.01,114.93 -2.24,-19.23 -4.05,-37.88 -4.98,-56.05 -6.61,-129.45 16.73,-234.78 73.45,-331.46 94.94,-161.85 268.18,-223.19 435.72,-282.5 17.48,-6.19 35.02,-12.4 52.53,-18.74 -50.13,95.33 -97.37,207.08 -68.12,295.6 14.64,44.3 47.19,78.16 96.75,100.64 7.86,3.55 17.11,1.7 22.96,-4.66 38.34,-41.57 34.66,-129.33 31.4,-206.75 -1.37,-32.49 -2.66,-63.18 -0.47,-84.85 4.76,-47.19 10,-93.75 18.44,-139.26 z M 5950.6,2498.65 c 2.73,-0.09 5.47,-0.16 8.24,-0.21 -2.11,2.72 -4.13,5.42 -6.1,8.14 -0.72,-2.65 -1.44,-5.3 -2.14,-7.93 z m 66.99,-0.11 c 42.23,0 83.58,-1.98 113.59,-17.42 -1.13,26.61 -6.71,50.63 -19.06,69.44 -15.47,23.55 -40.71,37.29 -77.18,42 -25.63,3.32 -43.56,3 -55.27,0.76 -0.01,-0.02 -0.01,-0.03 -0.02,-0.05 -4.12,-12.59 -8.17,-24.93 -12.04,-37.1 8.21,-16.69 23.72,-36.99 42.87,-57.65 2.37,0.01 4.74,0.02 7.11,0.02 z m -3082.67,-22.25 c 19.24,-8.41 43.9,-15.14 71.09,-19.93 1.91,15.25 2.45,30.08 1.78,44.76 -0.58,-0.06 -1.16,-0.12 -1.75,-0.18 -25.27,-2.62 -51.25,-5.31 -71.12,-24.65 z m 110.51,-25.31 c 67.48,-6.7 141.4,-1.97 185.21,18.14 -2.72,60.34 -17.24,115.89 -43.57,166.45 -55.88,107.3 -145.88,169.66 -250.47,217.3 4.51,-18.23 9.71,-36.26 15.79,-54.07 9.91,-13.95 20.85,-28.59 32.05,-43.59 36.8,-49.25 74.85,-100.17 87.6,-142.67 12.08,-40.26 12.05,-66.35 -0.11,-84.58 -6.33,-9.49 -14.89,-15.35 -24.64,-19.16 1.2,-18.83 0.69,-37.96 -1.86,-57.82 z m 3007.02,6.76 c 24.24,-21.37 49.94,-40.7 72.49,-53.9 1.6,9.23 2.97,18.44 4.02,27.55 -0.64,1.06 -1.33,2.08 -2.08,3.05 -12.47,15.99 -41.44,21.51 -74.43,23.3 z m -905.3,459.85 c -32.96,-4.12 -62.3,-16.4 -87.12,-36.72 -61.28,-50.14 -92.37,-148.43 -81.17,-256.5 9.27,-89.36 1.12,-162.95 -7.51,-240.88 -1.98,-17.88 -3.98,-35.91 -5.77,-54.32 -2.92,-29.91 -1.26,-61.15 1.55,-92.18 13.8,3.88 28.95,6.44 43.91,8.98 27.93,4.73 59.58,10.09 74.78,23.2 43.61,37.66 43.55,184.21 43.53,246.79 v 4.82 c 0,56.14 5.05,114.31 9.93,170.56 6.55,75.38 13.22,152.17 7.87,226.25 z m 36.12,41.48 c 25.18,-1.04 53.13,-5.72 84.02,-15.36 8.16,-2.54 13.81,-10.01 14.03,-18.56 2.62,-98.35 -14.6,-193.06 -31.24,-284.64 -13.1,-72.11 -26.65,-146.66 -30.3,-222.2 -0.49,-10.11 -1.25,-21.32 -2.07,-33.28 -3.2,-46.77 -7.59,-110.91 4.13,-158.32 33.24,19.37 77.82,15.61 128.41,11.37 16.47,-1.39 33.5,-2.82 51.96,-3.76 0.4,-0.02 0.8,-0.05 1.2,-0.1 1.25,45.49 1.22,90.29 1.19,134.27 -0.07,103.84 -0.15,211.2 17.12,320.38 7.54,47.59 24.33,94.62 40.58,140.11 23.5,65.78 45.69,127.92 23.38,156.64 -17.62,22.67 -66.11,30.46 -144.19,23.13 -52.04,-4.87 -100.77,-22.34 -147.9,-39.23 -3.72,-1.34 -7.46,-2.68 -11.21,-4.02 0.31,-2.14 0.6,-4.29 0.89,-6.43 z m 3815.72,-474.94 c -28.96,-91.65 -50.24,-179.12 -39.16,-262.05 2.17,3.84 4.36,7.67 6.57,11.5 0.11,33.41 2.12,66.96 7.18,100.53 7.74,51.21 16.68,101.38 25.41,150.02 z m -6572.23,-11.35 c -5.51,-10.08 -11.17,-20.22 -16.86,-30.41 -40.7,-72.93 -82.78,-148.34 -82.82,-226.12 -0.01,-17.38 0.64,-34.52 1.97,-51.4 13.12,29.85 30.02,58.3 46.43,85.93 31.13,52.4 60.52,101.89 63.85,157.07 1.29,21.16 -4.39,43.05 -12.57,64.93 z m 4144.73,469.32 c 1.5,-6.45 2.99,-12.88 4.49,-19.29 19.47,-83.7 39.62,-170.25 40.53,-262.24 1.73,-174.31 -47.15,-293.94 -103.76,-432.45 -8.73,-21.35 -17.61,-43.12 -26.51,-65.56 68.71,26.68 127.46,100.84 141.58,159.25 17.48,72.32 11.53,134.73 5.21,200.79 -2.66,27.82 -5.41,56.58 -6.36,86.43 -0.87,27.25 5.51,66.87 12.89,112.74 11.17,69.4 26.48,164.42 6.5,194.15 -6.98,10.39 -37.91,19.1 -74.57,26.18 z m 2434.96,-719.28 c 0.2,-22.89 1.26,-45.8 2.77,-68.63 80.36,5.65 241.61,193.07 284.17,285.75 54.31,118.32 63.89,246.03 74.02,381.25 5.54,73.82 11.26,150.15 25.02,224.15 4.01,21.56 7.86,44.47 11.85,68.11 12.28,72.84 26.19,155.4 49.45,225.66 11.21,33.87 26.96,64 42.21,93.13 27.16,51.9 52.8,100.93 46.36,162.18 -4.12,39.19 -24.68,87.18 -45.9,134.46 -68.2,-24.21 -150.2,-42.28 -230.45,-54.29 11.17,-86.27 19.12,-173.12 27.24,-262.03 l 2.72,-29.64 c 3.22,-35.02 6.97,-70.59 10.59,-105 19.76,-187.53 40.19,-381.43 -17.01,-569.79 -36.78,-121.1 -110.99,-228.6 -182.77,-332.55 -34.29,-49.67 -69.5,-100.67 -100.27,-152.76 z m -3768.99,-33.75 c 1.72,-2.55 3.56,-4.94 5.52,-7.16 23.74,-26.94 78.02,-38.03 111.65,-22.85 16.14,7.28 25.18,19.5 27.01,36.43 -12.31,0.84 -24,1.83 -34.74,2.73 -53.89,4.54 -87.63,7.37 -109.44,-9.15 z m 769.25,-422.85 c 18.94,-1.42 33.44,3.56 43.62,15.25 28.14,32.31 23.19,109.21 8.27,159.99 -31.56,1.35 -56.85,-2.24 -77.57,-10.09 9.4,-54.23 18.64,-109.64 25.68,-165.15 z M 2322.23,2003.6 c -7.84,-52.17 -5.04,-105.47 18.81,-156.35 24.12,-51.48 89.56,-125.87 141.34,-130.1 16.37,-1.29 30.54,4.74 42.95,18.57 -17.38,27.34 -42.94,50.05 -69.83,73.95 -33.58,29.85 -68.3,60.7 -92.89,104.68 -15.98,28.58 -29.45,58.36 -40.38,89.25 z m 19,78.83 c 11.65,-52.67 30.45,-102.34 56.29,-148.57 21.29,-38.08 53.45,-66.65 84.55,-94.29 31.72,-28.19 64.53,-57.34 85,-96.14 3.47,-6.57 3.01,-14.52 -1.19,-20.64 -4.58,-6.68 -9.32,-12.44 -14.16,-17.4 27.62,21.82 45.88,49.48 49.83,84.48 6.28,55.6 -13.18,111.19 -33.79,170.05 -24.09,68.81 -49,139.97 -36.16,219.31 18.31,113.13 109.89,179.29 190.69,237.67 14.31,10.34 28.5,20.59 42.16,30.98 142.63,108.53 135.3,145.58 134,149.45 -1.16,3.43 -10.62,20.49 -83.82,20.48 -29.42,0 -57.91,-4.08 -85.46,-8 -37.52,-5.34 -76.34,-10.88 -118.82,-6.71 -30.55,3 -60.72,10.29 -89.89,17.35 -11.52,2.79 -22.85,5.52 -34.04,7.98 -4.07,-36.29 -17.71,-72.55 -35.53,-109.3 15.87,-36.12 30.8,-73.5 28.37,-113.71 -3.92,-64.85 -37.2,-120.88 -69.39,-175.06 -18.24,-30.72 -37.11,-62.49 -49.61,-94.65 -6.71,-17.26 -13.22,-35.08 -19.03,-53.28 z m 3956.49,569.54 c -27.39,0 -47.53,-8.15 -61.31,-24.71 -58.89,-70.77 -0.02,-278.19 31.61,-389.62 9.66,-34.03 17.29,-60.92 20.44,-78.48 20.76,-115.84 3.02,-162.51 -35.84,-264.78 l -5.99,-15.76 c -3.3,-8.73 -6.6,-17.22 -9.81,-25.44 -19.6,-50.34 -35.08,-90.1 -23.01,-114.65 7.37,-14.98 26.26,-26.75 57.76,-36 36.96,-10.83 64.31,-9.29 83.63,4.74 45.48,33.08 48.43,137.89 51.03,230.36 1.87,66.13 3.62,128.82 18.46,175.44 -37.01,3 -71.09,19.92 -100.46,50.27 -61.68,63.73 -46.29,180.35 -31.41,293.13 9.43,71.42 19.15,145.1 6.58,195.49 -0.55,0.01 -1.12,0.01 -1.68,0.01 z m -449.43,-956.64 c 58.93,-32.66 117.26,-38.75 165.58,-16.89 54.43,24.58 92.98,82.94 105.76,160.13 11.33,68.49 -4.1,121.62 -20.44,177.86 -19.33,66.52 -39.31,135.31 -14.37,229.97 2.92,11.09 6.52,23.63 10.42,37.22 6.85,23.82 14.72,51.24 21.36,79.67 -35.48,19.36 -83.06,55.34 -122.38,95.11 -18.18,-0.13 -36.06,-0.26 -52.96,0.52 -6.58,-32.51 -10.58,-66.13 -10.59,-103.04 -0.03,-133.39 21.83,-261.13 43.41,-384.71 27.22,8.99 60.25,12.64 100.95,9.33 7.83,-0.62 14.56,-5.79 17.22,-13.18 19.5,-54.39 33.57,-160.08 -11.75,-212.12 -15.52,-17.81 -44.76,-36.8 -95.89,-26.09 -8.4,1.77 -14.75,8.7 -15.76,17.22 -6.5,54.47 -15.38,109.28 -24.63,163.08 -36.53,-31.97 -53.83,-85.71 -75.26,-152.24 -6.46,-20.08 -13.1,-40.7 -20.67,-61.84 z m -872.71,378.46 c -1.31,-14.35 -3.56,-28.63 -7.06,-42.79 -10.43,-42.16 -29.92,-73.57 -48.76,-103.96 -26.45,-42.64 -49.3,-79.48 -42.67,-140.02 7.16,-65.32 32.65,-116.59 63.43,-127.55 18.76,-6.69 40.52,2.01 64.73,25.8 40.11,39.43 83.35,178.23 86.72,239.59 5.01,91.46 -19.16,101.4 -59.19,117.89 -17.37,7.15 -37.53,15.45 -57.2,31.04 z m 3982.6,56.9 c -21.28,-46.74 -38.81,-94.46 -57.1,-144.19 -22.37,-60.88 -45.5,-123.84 -76.38,-185.22 -39.12,-77.77 -93.27,-128.9 -147.15,-176.46 6.96,1.05 13.95,2.1 20.99,3.14 21.1,3.13 39.32,5.82 50.59,8.04 l 5.93,1.16 c 60.81,11.95 109.19,21.43 153.29,15.58 7.62,16.93 16.31,33.78 24.89,50.41 17.96,34.78 34.92,67.64 41.18,98.38 17.86,87.59 9.9,176.09 1.47,269.77 -1.51,16.74 -3.02,33.59 -4.39,50.53 -4.49,2.28 -8.97,5.19 -13.32,8.86 z m -3743.57,22.96 c -2.89,-8.48 -5.35,-18.35 -7.49,-29.83 -6.6,-35.43 -3.31,-76.72 0.17,-120.43 4.15,-51.92 8.43,-105.6 -3.2,-156.71 -4.13,-18.16 -16.18,-43.26 -30.13,-72.33 -24.04,-50.06 -60.35,-125.72 -43.03,-154.17 11.8,-19.38 40.98,-29.53 77.92,-27.19 45.22,2.89 90.45,24.14 100.82,47.38 2.69,8.43 -6.49,41.91 -11.97,61.9 -7.24,26.4 -14.08,51.33 -12.84,68.78 1.99,27.8 15.89,61.04 28.15,90.37 2.85,6.83 5.61,13.42 8.08,19.64 5.2,13.07 10.59,26.2 16.01,39.37 26.16,63.67 53.21,129.5 59.45,195.55 0.81,8.57 1.54,17.13 2.2,25.66 -7.52,-7.71 -16.78,-14.13 -27.67,-19.04 -49.33,-22.25 -120.3,-8.01 -156.47,31.05 z m 3227.73,1786.99 c 7.18,-230.31 53.58,-456.86 104.78,-663.28 34.75,-140.13 9.88,-248.1 -16.46,-362.4 -8.69,-37.76 -17.68,-76.8 -24.78,-118.1 -15.93,-92.84 8.36,-173.17 34.07,-258.21 19.95,-65.98 40.59,-134.2 40.49,-208.22 -0.13,-101.4 -35.39,-192.9 -69.5,-281.38 -19.72,-51.15 -40.11,-104.05 -52.96,-157.49 -1.44,-5.99 -3.11,-12.7 -4.91,-19.96 -13.98,-56.29 -40,-161.08 -24.11,-207.45 8.01,-23.34 25.16,-39.47 43.32,-56.55 7.09,-6.67 14.58,-13.71 21.47,-21.47 30.47,10.42 68.14,18.92 109.61,26.48 11.02,9.98 22.09,19.68 33.07,29.31 58.28,51.12 113.34,99.41 152.53,177.33 29.86,59.35 52.59,121.21 74.58,181.05 20.46,55.66 41.51,112.92 68.44,168.65 -4.87,12.1 -8.79,26.75 -11.33,44.48 -16.39,114.42 24.37,236.57 63.8,354.71 22.07,66.15 44.7,133.96 56.98,199.84 3.75,42.31 5.94,85.61 5.94,130.66 0,16.83 0.36,34.3 0.73,52.22 1.46,71.5 3.12,152.53 -18.92,224.55 -7.46,24.38 -16.03,47.29 -24.3,69.45 -21.82,58.42 -42.44,113.61 -41.68,187.76 0.06,5.51 2.39,10.75 6.43,14.48 4.05,3.74 9.5,5.62 14.95,5.27 93.75,-6.47 127.5,-198.02 106.2,-602.83 l -0.65,-12.55 c -1.26,-24.61 -4.44,-49.46 -9.01,-74.4 -8.51,-94.95 -24.62,-184.58 -41.35,-277.75 -9.14,-50.79 -18.57,-103.31 -26.64,-156.71 -1.2,-7.95 -2.21,-15.93 -3.06,-23.92 20.8,31.92 42.44,63.25 63.73,94.09 70.03,101.44 142.45,206.33 177.41,321.45 54.85,180.61 35.74,361.97 15.51,553.97 -3.63,34.55 -7.4,70.26 -10.64,105.55 l -2.72,29.65 c -8.08,88.34 -15.97,174.63 -27.05,260.2 -122.64,-15.47 -234.95,-16.46 -279.19,-3.24 -74.85,22.35 -130.31,75.53 -183.94,126.97 -36.93,35.42 -75.12,72.05 -118.47,96.78 -49.33,28.15 -101.26,35.74 -156.26,43.79 -15.25,2.23 -30.65,4.48 -46.11,7.22 z m 73.13,-2389.4 c 2.82,-8 4.46,-16.72 4.43,-26.3 9.82,12.67 20.02,24.56 30.48,35.86 -0.76,-0.18 -1.51,-0.37 -2.26,-0.55 -12.5,-3.07 -23.32,-6.09 -32.65,-9.01 z m 417.12,54.03 c -4.18,-12.79 -6.99,-25.21 -7.73,-37.05 -1.72,-28.07 5.12,-53.05 15.95,-77.08 31.08,10.74 58.01,24.64 78.44,42.02 -30.75,38.96 -57.78,61.08 -86.66,72.11 z m -5894.8,805.9 c -10.88,-42.77 -31.13,-89.67 -63.58,-144.22 -95.33,-160.26 -122.96,-339.75 -149.69,-513.34 -16.62,-108.03 92.76,-259.58 174.02,-273.16 12.2,-2.04 49.31,-8.25 62.87,66.87 8.14,45.12 -4.21,92.95 -17.29,143.58 -12.24,47.36 -24.89,96.33 -21.04,146.24 5.91,76.55 43.53,144.24 79.91,209.69 9.37,16.86 18.22,32.77 26.61,48.94 62.94,121.28 96.65,231.7 101.02,330.38 -52.36,-18.37 -125.56,-22.26 -192.83,-14.98 z m 5502.74,-925.52 c 99.59,-27.53 248.48,-33.38 361.52,-5.82 -11.7,27.29 -19.19,56.85 -17.11,90.83 0.88,14.34 3.92,28.76 8.39,43.17 -35.49,2.82 -76.34,-5.25 -130.56,-15.92 l -5.93,-1.17 c -12.19,-2.38 -29.96,-5.02 -52.44,-8.35 -24.07,-3.56 -52.96,-7.84 -82.52,-13.02 -29.27,-26.94 -56.81,-55.18 -81.35,-89.72 z m -62.31,51.19 c -17.02,-8.5 -20.93,-14.7 -21.75,-16.52 -7.37,-16.35 0.6,-37.17 21.73,-59.51 0.6,1.13 1.19,2.24 1.8,3.36 -4.98,2.19 -8.85,6.31 -10.72,11.42 -1.92,5.18 -1.58,10.95 0.91,15.89 9.8,19.49 11.71,33.36 8.03,45.36 z m 31.09,-103.04 c 6.85,-5.07 14.3,-10.15 22.31,-15.22 76.38,-48.31 184.72,-84.63 277.33,-95.97 -23.91,31.91 -36.71,60.76 -24.59,86.54 2.44,5.2 5.7,9.87 9.85,14.04 -100.02,-6.27 -203.7,5.82 -276.03,27.44 -3.2,-5.68 -6.15,-11.28 -8.87,-16.83 z m 354.47,-114.91 c 0.74,0 1.48,0 2.23,0 46.02,0 84.17,8.4 106.53,27.37 -7.64,21.34 -19.57,41.95 -32.35,63.37 -104,4.48 -117.89,-13.78 -119.63,-17.5 -5.87,-12.47 18.29,-44.31 43.22,-73.24 z m -369.68,76.57 c -9.53,-31.89 -10.04,-61.19 -1.24,-86.87 15.18,-44.34 59.13,-79.02 127.12,-100.28 13.33,-4.17 27.29,-8.72 41.7,-13.42 87.74,-28.63 196.01,-63.97 278.17,-47.39 0.53,26.86 -44.64,76.65 -78.5,113.99 -5.41,5.96 -10.75,11.84 -15.94,17.64 -111.57,4.76 -247.5,50.19 -335.17,105.64 -5.69,3.6 -11.06,7.17 -16.14,10.69 z m 2911.4,-383.16 c -65.2,0 -148.4,19.99 -217.8,38.9 -165.5,45.12 -293.7,142.37 -417.6,236.4 -139,105.48 -270.3,205.11 -451.3,239 -148.1,27.72 -288,53.92 -441.81,-13.78 -47.95,-21.12 -93.94,-48.23 -138.43,-74.44 -63.86,-37.63 -129.9,-76.55 -205.32,-100.49 -125.35,-39.79 -246.53,-6.08 -363.72,26.53 -58.8,16.35 -119.19,33.16 -180.66,41.03 10.43,-18.82 19.79,-38.36 25.67,-59.25 1.81,-6.4 0.3,-13.3 -4,-18.36 -24.07,-28.32 -64.06,-43.1 -112.19,-47.6 50.27,-55.58 98.76,-112.38 75.42,-158.54 -2.57,-5.08 -7.18,-8.83 -12.68,-10.29 -94.73,-25.38 -215.09,13.9 -311.8,45.45 -14.26,4.65 -28.06,9.15 -41.23,13.27 -80.65,25.23 -133.57,68.62 -153.04,125.5 -12.96,37.86 -10.88,80.57 5.77,126.19 -55.94,51.16 -50.87,92.55 -40.77,114.94 5.62,12.46 17.59,23.18 34.5,32.55 -3.02,2.93 -6.24,5.96 -9.64,9.15 -19.93,18.75 -42.52,40 -53.74,72.73 -18.2,53.08 1.44,142.75 23.12,230.04 1.78,7.16 3.42,13.77 4.84,19.68 13.47,56.02 34.34,110.17 54.52,162.52 34.31,89.01 66.71,173.07 66.83,267.06 0.09,68.07 -18.79,130.49 -38.77,196.57 -25.94,85.76 -52.74,174.42 -35.21,276.57 7.28,42.41 16.4,82.01 25.23,120.31 26.32,114.27 49.05,212.95 16.6,343.79 -52.5,211.66 -99.97,444.36 -106.24,681.41 -25.16,6.37 -50.26,15.06 -74.95,28.06 -7.1,3.74 -11.28,11.36 -10.62,19.36 5.06,60.8 16.36,116.41 27.28,170.18 18.03,88.8 35.06,172.66 20.77,266.38 -4.56,29.97 -3.63,72.69 -2.64,117.92 1.84,84.21 4.13,189.01 -30.55,221.57 -8,7.51 -17.71,10.52 -30.68,9.4 -22.11,-1.88 -97.9,-42.93 -148.05,-70.09 -32.25,-17.46 -60.1,-32.55 -76.98,-39.78 -35.27,-15.13 -69.57,-32.84 -102.28,-52.75 9.06,-57.26 -7.69,-99.32 -64.25,-172.85 -26.11,-33.94 -57.89,-62.53 -88.63,-90.18 -34.4,-30.95 -66.89,-60.17 -91.55,-95.89 -21.84,-31.62 -46.55,-96.37 -72.7,-164.93 -59.35,-155.6 -131.48,-344.68 -243.09,-364.96 -69.51,-76.89 -166.25,-137.19 -237.01,-125.92 -77.92,12.32 -114.98,67.33 -147.68,115.85 -4,5.93 -7.95,11.8 -11.95,17.55 -0.25,-0.31 -0.5,-0.62 -0.76,-0.93 -34.82,-41.9 -80.68,-66.33 -125.82,-67.01 -0.11,0 -0.2,0 -0.3,0 -5.32,0 -10.43,2.12 -14.19,5.91 -3.83,3.85 -5.93,9.09 -5.81,14.52 0.71,32.89 -15.91,66.06 -39.58,97.62 -29.17,-18.79 -57.26,-45.46 -83.29,-72.64 -5.85,-6.1 -11.61,-12.4 -17.3,-18.91 -5.14,-78.04 3.07,-168.07 8.35,-225.9 2.2,-24.12 4.1,-44.96 4.89,-60.78 1.16,-23.74 3.16,-48.51 5.08,-72.47 12.26,-152.15 26.16,-324.61 -174.69,-354.59 -0.27,-0.03 -0.55,-0.07 -0.82,-0.11 55.31,-10.19 92.46,-22.86 107.02,-44.54 28.77,-42.82 14.03,-134.32 -0.22,-222.82 -6.76,-42.01 -13.15,-81.7 -12.4,-105.11 0.91,-28.58 3.59,-56.69 6.19,-83.89 6.36,-66.45 12.92,-135.16 -6.13,-213.99 -17.8,-73.67 -93.91,-168.66 -185.82,-193.7 -4.28,-1.16 -8.54,-2.15 -12.76,-2.99 -0.99,-2.63 -1.98,-5.28 -2.96,-7.93 -15.29,-41.17 -17.15,-107.32 -18.95,-171.29 -3.01,-106.66 -6.1,-216.96 -67.51,-261.59 -29.59,-21.52 -69.4,-25.12 -118.4,-10.77 -42.85,12.57 -69.8,31.13 -82.39,56.72 -19.83,40.34 -1.54,87.33 21.63,146.82 3.16,8.11 6.42,16.47 9.68,25.09 l 5.99,15.81 c 38.33,100.85 52.67,138.59 33.86,243.52 -2.79,15.61 -10.55,42.94 -19.54,74.61 -38.33,135.05 -96.26,339.13 -23.89,426.13 24.9,29.92 62.09,42.75 110.72,38.21 7.72,-0.72 14.33,-5.86 16.95,-13.17 21.25,-59.28 10.52,-140.58 -0.84,-226.66 -13.64,-103.36 -27.74,-210.23 20.5,-260.07 25.46,-26.31 54.23,-39.32 86.42,-38.5 12.18,31.49 24.41,61.42 36.32,90.6 54.97,134.51 102.44,250.67 100.79,416.91 -0.87,87.61 -20.5,171.97 -39.49,253.56 -2.75,11.84 -5.52,23.71 -8.24,35.64 -24.44,3.72 -48.47,6.78 -67.32,9.19 -33.11,4.21 -64.37,8.19 -86.12,12.81 -147.83,31.34 -244.09,27.53 -286.09,-11.35 -37.11,-34.31 -53.53,-126.46 -66.72,-200.51 -6.17,-34.62 -11.99,-67.32 -19.39,-92.15 -3.31,-11.13 -6.68,-21.99 -10.05,-32.63 13.74,0.6 29.39,-0.22 46.99,-2.5 48.04,-6.21 83.52,-26.3 105.47,-59.71 23.86,-36.33 28.55,-84.27 24.21,-134.04 7.12,-19.73 6.81,-43.96 -0.86,-73.37 -1.4,-5.35 -4.95,-9.89 -9.82,-12.53 -1.37,-0.75 -2.83,-1.33 -4.32,-1.73 -6.64,-28.03 -14.32,-54.76 -21.07,-78.28 -3.82,-13.27 -7.33,-25.52 -10.18,-36.37 -22.12,-83.93 -4.53,-144.5 14.1,-208.62 16.85,-58.06 34.29,-118.08 21.48,-195.54 -15,-90.61 -61.93,-159.88 -128.76,-190.06 -64.71,-29.22 -141.85,-19.43 -217.17,27.63 -8.09,5.05 -11.48,15.11 -8.11,24.04 9.74,25.77 17.92,51.19 25.84,75.78 23.89,74.2 46.95,145.76 105.71,183.87 -0.2,1.14 -0.4,2.27 -0.59,3.39 -22.31,127.63 -45.38,259.6 -45.34,399.2 0.01,38.38 4.12,73.65 10.74,107.38 -24.96,4.87 -45.52,14.37 -58.45,32.7 -41.59,58.97 3.82,161.41 43.89,251.79 20.81,46.94 40.47,91.28 42.61,117.93 3.18,39.67 3.91,76.51 4.62,112.14 1.67,84.24 3.25,163.81 37.03,259.81 1.06,3.01 2.18,6.07 3.35,9.22 -33.57,68.69 -47.73,172.04 53.29,293.54 -22.68,-1.99 -40.21,2.75 -53.04,14.24 -34.51,30.92 -17.57,95.81 -3.96,147.95 4.88,18.69 10.41,39.88 9.76,47.63 -0.64,7.51 -2.12,12.75 -5.07,17.17 -19.12,-59.77 -45.07,-93.16 -77.32,-99.4 -24.2,-4.64 -47.7,6.89 -66.28,32.47 -36.77,50.66 -48.78,149.99 -5.25,228.57 5.31,9.58 10.83,18.31 16.45,26.34 -8.29,15.41 -15.94,34.48 -23.91,54.33 -11.53,28.7 -32.97,82.11 -47.75,83.76 -3.06,0.2 -11.97,-4.12 -25.01,-23.02 -16.05,-23.27 -17.46,-77.49 -18.84,-129.93 -1.32,-50.99 -2.71,-103.72 -16.98,-142.24 -24.96,-67.34 -64.41,-119.18 -106.17,-174.07 -15.08,-19.81 -30.68,-40.3 -45.63,-61.7 -13.08,-18.71 -25.62,-39.45 -37.11,-61.57 48.34,6.91 97.13,12.74 145.1,14.96 9.81,0.34 18.58,-6.34 20.53,-16.01 9.24,-45.74 0.25,-82.98 -26.71,-110.71 -21.84,-22.47 -54.03,-36.53 -92.07,-44.63 0.94,-2.49 1.89,-5.01 2.83,-7.56 54,-146.25 44.61,-242.41 -27.9,-285.81 -6.95,-4.17 -15.71,-3.72 -22.21,1.1 -93.94,69.85 -113.54,177.82 -96.91,284.11 -84.1,4.11 -171.15,19.18 -233.33,29.94 -18.1,3.14 -33.27,5.77 -44.48,7.38 -26.06,3.75 -49.71,10.05 -72.58,16.15 -26.73,7.12 -49.72,13.24 -70.42,13.84 24.67,-77.7 62.56,-151.4 101.57,-227.29 11.23,-21.87 22.55,-43.88 33.66,-66.17 16.92,-34.01 28.63,-69.06 36.48,-104.82 1.63,0.59 3.26,1.18 4.89,1.76 49.47,17.74 100.61,36.07 157.67,41.41 95.16,8.93 152.21,-3.29 179.5,-38.41 35.79,-46.06 11.19,-114.91 -17.29,-194.65 -15.63,-43.75 -31.79,-89 -38.73,-132.9 -16.79,-106.06 -16.71,-207.11 -16.64,-314.1 0.06,-82.57 0.12,-167.94 -8.22,-256.31 -6.8,-71.98 -35.01,-140.61 -62.28,-206.98 -5.36,-13.04 -10.7,-26.02 -15.84,-38.96 -2.55,-6.41 -5.4,-13.23 -8.34,-20.27 -11.08,-26.5 -23.64,-56.53 -25.15,-77.8 -0.77,-10.63 5.75,-34.39 11.5,-55.34 11.74,-42.79 18.26,-70.12 9.93,-88.79 -18.82,-42.16 -82.06,-67.63 -134.8,-70.99 -52.89,-3.37 -94.65,13.51 -114.63,46.3 -28.62,46.99 8.44,124.18 41.13,192.28 12.37,25.78 24.05,50.12 27.19,63.89 10.27,45.15 6.23,95.74 2.33,144.66 -3.7,46.43 -7.2,90.29 0.37,130.94 5.06,27.12 12.56,47.84 22.18,63.56 -21.53,56.21 -16.25,133.37 -12.17,193.05 0.8,11.67 1.55,22.6 2.03,32.49 3.77,78.16 17.56,154.03 30.9,227.41 16.15,88.87 31.45,173.06 30.85,261.86 -18.8,5.01 -36.94,8.06 -54.3,9.16 5.28,-76.2 -1.49,-154.2 -8.15,-230.8 -4.81,-55.41 -9.78,-112.69 -9.78,-167.1 v -4.8 c 0.03,-79.49 0.08,-227.46 -57.39,-277.08 -23.65,-20.42 -59.54,-26.49 -94.24,-32.37 -15.62,-2.65 -33.47,-5.67 -46.51,-10.04 2.26,-21.81 4.43,-43.88 5.38,-65.99 0.35,-0.49 0.7,-0.98 1.07,-1.47 21.22,-29.08 46.19,-39.36 70.35,-49.3 52.97,-21.8 89.99,-45.83 83.9,-157.06 -3.44,-62.73 -46.42,-214.6 -98.61,-265.92 -44.92,-44.17 -82.54,-43.41 -106.21,-34.96 -55.34,19.72 -82.65,96.04 -89.76,160.88 -8.14,74.26 20.62,120.61 48.44,165.46 18,29.02 35.01,56.43 43.92,92.48 6.15,24.87 7.88,50.45 7.34,76.77 -22.97,34.62 -29.59,61.07 -20.85,82.56 2.9,7.14 7.21,13.04 12.6,17.98 -3.8,37.9 -6.76,76.7 -3.02,115.13 1.81,18.58 3.83,36.79 5.83,54.84 8.39,75.74 16.31,147.27 7.49,232.36 -12.77,123.12 22.97,232.13 95.61,291.58 8.62,7.05 18.6,14.06 30,20.45 -0.26,-0.04 -0.51,-0.08 -0.76,-0.12 -68.59,-10.81 -108.73,-6.95 -134.23,12.84 -29.66,23.05 -33.34,62.32 -38,112.04 -0.96,10.21 -1.97,21.07 -3.27,32.54 -2.29,20.23 -6.76,42.27 -11.48,65.61 -15.18,74.97 -32.38,159.93 14.99,227.25 19.27,27.38 39.75,43.57 60.94,52.34 -3.54,14.2 -6.62,28.57 -9.16,43.16 -41.81,20.41 -82.91,47.71 -123.06,83.65 -5.57,4.99 -7.9,12.66 -6.03,19.9 5.73,22.15 11.39,45.3 17.17,68.99 26.22,107.29 55.92,228.88 107.16,316.7 8.45,14.48 23.93,31.79 41.86,51.82 28.32,31.66 75.42,84.29 66.22,106.66 -17.4,14.55 -131.64,32.98 -167.85,34.55 -71.49,3.12 -139.73,-9.68 -211.97,-23.21 -64.96,-12.16 -132.12,-24.74 -201.93,-24.74 -0.92,-0.01 -1.82,0 -2.75,0 -6.08,0 -12.4,-0.07 -18.9,-0.13 -64.18,-0.72 -152.12,-1.58 -196.35,61.98 -20.95,30.13 -19.56,64.26 -18.33,94.37 1.25,30.58 2.34,57.41 -16.16,80.98 -11.86,-2.55 -24.03,-5.06 -36.42,-7.63 -9.97,-2.06 -20.05,-4.14 -30.17,-6.28 7,-4.73 13.47,-10.2 19.3,-16.53 28.69,-31.09 37.46,-76.77 26.82,-139.64 -10.66,-62.97 -46.88,-105.24 -104.72,-122.22 -89.83,-26.41 -210.34,15.54 -275.96,72.97 -39.39,-61.24 -88.81,-131.5 -167.47,-142.92 -5.46,-0.76 -11.01,0.71 -15.33,4.15 -4.32,3.45 -7.02,8.52 -7.47,14.02 -3.06,37.63 13.23,85.59 39.93,130.97 -64.45,-3.47 -123.49,34.4 -184.29,73.38 -28.62,18.36 -58.22,37.35 -90.38,53.86 -39.56,20.31 -89.57,37.7 -133.6,27.86 -56.68,-140.32 -0.92,-288.97 169.29,-452.75 10.98,-10.56 21.48,-20.13 31.17,-28.97 39.22,-35.78 67.57,-61.64 64.89,-96.15 -2.1,-27.04 -23.22,-51.97 -70.65,-83.34 -27.81,-18.41 -62.49,-33.08 -100.08,-45.42 82.32,-262.96 94.99,-553.98 29.15,-815.2 -5.83,-23.14 -10.44,-52.53 -15.31,-83.65 -14.41,-91.96 -30.69,-195.91 -90.32,-239.45 -0.35,-110.23 -35.75,-233.66 -106.07,-369.17 -8.65,-16.68 -18.06,-33.6 -27.16,-49.95 -34.29,-61.7 -69.75,-125.5 -74.99,-193.33 -3.34,-43.28 8.47,-88.97 19.89,-133.17 13.58,-52.57 27.62,-106.93 17.92,-160.69 -18.56,-102.86 -82.28,-103.67 -108.83,-99.21 -100.81,16.85 -227.12,187.62 -206.95,318.69 27.3,177.37 55.54,360.77 154.85,527.71 29.41,49.45 48.1,91.33 58.34,129.48 -42.4,7.71 -79.8,20.07 -104.39,36.08 -8.97,5.84 -11.75,17.71 -6.31,26.93 30.8,52.17 79.15,57.18 114.44,60.84 0.41,0.04 0.82,0.08 1.23,0.12 -9.15,49.62 -30.28,100.63 -56.65,164.27 -6.53,15.77 -13.36,32.25 -20.37,49.59 -3.44,8.53 -6.67,17.08 -9.69,25.66 -12.06,17.21 -22.69,33.65 -30.72,49.04 -7.38,14.12 -16.35,30.29 -25.86,47.41 -1.83,3.31 -3.69,6.66 -5.57,10.05 -31.01,11.8 -62.77,23.05 -94.86,34.4 -174.3,61.71 -354.54,125.53 -456.87,299.97 -60.85,103.72 -85.92,216.13 -78.9,353.73 1.25,24.5 4.09,50.2 7.28,75.75 -11.7,7.08 -22.79,14.14 -33.3,21.19 -2.84,-39.49 -7.65,-78.45 -12.36,-116.56 -15.53,-125.76 -30.21,-244.53 22.55,-369.8 33.59,-79.76 83.81,-156.79 132.36,-231.27 50.19,-76.99 102.09,-156.6 134.89,-238.54 6.23,-15.56 9.95,-31.04 11.59,-46.47 14.57,-3.02 28.97,-6.5 43.19,-9.94 29.12,-7.04 56.63,-13.69 84.4,-16.43 37.74,-3.72 72.47,1.26 109.26,6.51 28.93,4.12 58.84,8.4 91.1,8.4 71.09,0.01 110.9,-15.59 121.73,-47.69 9.41,-27.91 4.34,-78.39 -147.68,-194.07 -13.92,-10.59 -28.37,-21.04 -42.96,-31.57 -78.15,-56.47 -158.96,-114.86 -174.63,-211.63 -11.21,-69.33 12,-135.61 34.44,-199.72 21.18,-60.5 43.08,-123.07 35.78,-187.76 -18.91,-167.45 -268.25,-200.33 -474,-198.16 -118.91,1.17 -235.33,35.54 -347.92,68.77 -79.21,23.39 -161.13,47.57 -241.21,58.97 -251.56,35.84 -507.99,45.07 -703.561,25.28 -124.371,-12.58 -424.148,-107.03 -663.515,-251.65 -9.453,-5.71 -21.754,-2.68 -27.461,6.78 -5.711,9.45 -2.676,21.74 6.777,27.46 255.52,154.37 556.926,244.74 680.176,257.21 198.634,20.07 458.594,10.8 713.234,-25.47 82.96,-11.82 166.29,-36.42 246.88,-60.21 109.96,-32.46 223.66,-66.03 337,-67.14 101.77,-0.93 249.41,6.87 343.78,53.26 -11.73,-3.45 -22.87,-3.95 -32.35,-3.19 -72.79,5.95 -147.05,94.81 -174.32,153 -39.94,85.24 -29.39,173.37 -4.89,254.08 -8.57,42.31 -12.87,86.36 -12.84,131.91 0.05,88.17 44.71,168.2 87.9,245.59 11,19.72 21.86,39.19 31.69,58.37 -21.28,48.37 -40.79,98.2 -13.36,147.63 3.52,6.34 10.19,10.28 17.44,10.3 11.37,-0.17 22.98,-0.72 34.34,-2.02 -1.53,8.33 -3.87,16.57 -7.14,24.73 -31.34,78.27 -79.88,152.74 -131.27,231.57 -49.52,75.96 -100.73,154.52 -135.71,237.58 -56.91,135.11 -40.88,264.81 -25.38,390.23 5.63,45.62 11.42,92.45 13.64,139.41 -78.89,61.81 -111.78,122.42 -98.12,181.42 1.82,7.86 8.19,13.86 16.14,15.2 37.32,6.34 66.61,0.76 87.1,-16.54 35.77,-30.2 35.81,-87.52 35.84,-138.1 v -2.71 c 0.01,-6.36 -0.07,-12.7 -0.21,-19.02 11.31,-8.24 23.55,-16.54 36.67,-24.89 10.71,83.74 19.07,168.75 -13.81,235.22 -18.38,37.15 -36.09,64.7 -51.72,88.99 -40.47,62.95 -69.71,108.44 -61.65,241.13 5.81,95.51 38.52,165.98 73.16,240.58 9.93,21.39 20.1,43.3 29.81,66.24 -113.4,-9.4 -274.77,-137.58 -395.11,-233.16 -49.81,-39.56 -96.84,-76.92 -134.41,-101.48 -12.11,-7.92 -24.62,-16.83 -37.87,-26.27 -69.44,-49.48 -155.88,-111.06 -240.23,-56.14 -12.87,8.37 -24.37,19.64 -34.46,32.88 -27.83,-43.04 -61.81,-79.45 -90.36,-96.47 -85.52,-50.99 -260.72,-99.83 -364.477,-111.77 -10.394,-1.23 -20.05,5.9 -21.953,16.25 -47.023,255.32 213.25,307.59 368.76,338.83 19.53,3.92 37.73,8.75 54.81,14.41 -1.23,28.65 1.94,54.51 9.65,72.95 3.85,9.21 13.93,14.17 23.57,11.61 30.23,-8.01 48.39,-23.25 59.14,-40.07 63.93,41.9 112.27,99.66 167.73,165.92 22.18,26.49 45.11,53.89 70.68,82.3 124.57,138.46 246.27,239.76 420.08,349.64 63.19,39.96 119.57,89.18 174.09,136.79 74.34,64.91 151.2,132.02 247.39,178.05 73.55,35.19 129.83,69.72 179.46,109.07 1.74,6.65 3.63,13.34 5.69,20.08 78.87,258.56 373.61,522.73 584.04,523.46 0.3,0 0.6,0 0.9,0 118.57,0 288.4,-79.95 339.02,-187.48 19.65,-41.74 30.48,-106.62 -29.5,-178.66 -44.83,-53.84 -104.27,-86.05 -161.75,-117.2 -85.36,-46.26 -165.99,-89.96 -193.29,-200.61 -13.54,-54.9 -7.75,-131.63 10.98,-202.7 26.37,-22.77 51.24,-41.79 88.95,-42.73 -14.39,41.91 -14.09,79.49 -4.27,114.14 -27.63,17.44 -44.22,38.76 -50.18,64.22 -22.54,96.37 121.34,210 236.95,301.29 38.65,30.52 72.03,56.88 87.29,74.03 5.61,6.31 14.55,8.41 22.39,5.27 7.82,-3.14 12.84,-10.84 12.55,-19.27 -4.24,-119.66 -85.03,-203.74 -156.32,-277.91 -41.95,-43.65 -80.99,-84.28 -102.38,-128.26 21.04,-8.61 44.62,-14.94 66.2,-19.51 5.88,-1.25 10.88,-5.07 13.63,-10.41 2.76,-5.34 2.96,-11.64 0.57,-17.14 -49.17,-112.94 -24.24,-190.71 4.61,-280.77 3.44,-10.71 6.89,-21.5 10.28,-32.47 46.06,-31.79 90.59,-70.89 125.62,-136.65 47.64,-89.43 99.4,-141.73 159.32,-202.3 29.45,-29.75 59.9,-60.52 91.99,-97.96 2.12,-2.48 4.18,-4.9 6.16,-7.27 25.46,-2.57 60.02,0.46 96.47,3.66 46.16,4.04 95.69,8.38 139.29,2.71 32.05,8.09 63.92,14.67 94.15,20.92 16.21,3.36 32.04,6.63 47.27,10 6.63,1.45 13.55,-0.53 18.38,-5.3 9.77,-9.65 16.93,-19.64 22.16,-29.8 10.98,35.69 56.41,66.7 93.22,88.56 95.56,56.75 238.09,65.93 363.85,74.02 56.05,3.62 108.99,7.03 153.87,14.19 60.85,9.72 124.88,38.44 186.81,66.22 76.5,34.32 155.61,69.8 232.66,71.68 5.5,0.18 10.97,-2.07 14.85,-6.07 3.88,-4.01 5.92,-9.47 5.61,-15.04 -5.35,-95.3 61.87,-210.32 146.78,-251.17 21.07,-10.13 47.91,-17.9 78.29,-15.05 -5.61,7.08 -11.27,14.14 -16.96,21.25 -43.85,54.76 -89.2,111.38 -120.56,186.79 -1.19,2.85 -2.35,5.8 -3.47,8.84 -30.32,25.62 -53.29,62.42 -73.08,119.09 -34.92,99.99 -42.76,258.82 22.55,371.24 36.34,62.57 91.73,102.31 160.19,114.93 142.6,26.31 229.6,-58.15 313.78,-139.82 46.71,-45.31 95,-92.15 152.29,-118.91 37.94,-17.72 105.07,-31.03 131.09,-29.03 8.63,0.55 16.56,-4.24 19.91,-12.14 3.34,-7.9 1.28,-17.05 -5.12,-22.75 -26.12,-23.23 -62.15,-43.17 -98.65,-55.73 22.39,-9.86 44.09,-19.64 65.52,-29.97 7.24,-3.49 11.68,-10.97 11.29,-18.99 -0.4,-8.03 -5.56,-15.04 -13.1,-17.8 -47.33,-17.35 -94.62,-50.24 -140.37,-82.05 -90.79,-63.13 -184.67,-128.42 -297.18,-93.28 -9.77,3.05 -15.67,12.98 -13.65,23.02 7.42,36.98 24.83,81.11 43.27,127.83 37.21,94.31 79.39,201.21 45.47,266.26 -15.18,29.12 -45.01,48.62 -91.19,59.61 -60.77,14.47 -110.53,-0.47 -147.93,-44.41 -79.21,-93.06 -84.59,-289.74 -51.13,-393.04 26.66,-19.26 61.12,-30.33 109.33,-40.92 8.04,-1.77 16.95,-3.52 26.33,-5.36 59.85,-11.73 134.34,-26.33 147.66,-74.8 8.29,-30.13 -9.25,-64.07 -53.61,-103.77 -17.92,-16.04 -36.64,-28.72 -55.86,-37.98 43.61,-60.96 80.64,-130.45 91.26,-226.9 3.82,-34.69 4.98,-66.64 3.92,-96.5 3.62,21.88 9.51,40.85 19.41,55.21 7.45,10.8 30.1,43.59 62.37,40.05 38.55,-4.3 58.89,-54.96 80.43,-108.6 4.76,-11.87 9.6,-23.93 14.42,-34.66 5.21,5.85 10.34,11.37 15.3,16.69 -36.04,65.92 -64.7,141.86 -87.01,200.96 -6.99,18.51 -13.02,34.5 -18.18,47.09 -2.1,5.14 -4.9,11.68 -8.16,19.27 -48.87,114.11 -73.67,192.22 -46.39,228.94 20.49,27.62 42.22,39.45 64.56,35.2 45.01,-8.59 67.57,-79.5 85.18,-145.29 1.49,-5.55 2.75,-10.26 3.79,-13.82 8.76,-29.71 25.27,-64.43 41.25,-97.99 21.42,-45.02 43.57,-91.56 50.55,-132.38 12.82,-74.9 -7.97,-113.6 -36.07,-146.8 35.38,-58.42 76.48,-102.79 120.97,-102.79 1.02,0 2.05,0.03 3.08,0.07 15.49,39.26 17.8,81.56 20.25,126.13 2.22,40.77 4.53,82.93 17.77,123.14 10.61,32.27 29.52,60.86 47.79,88.5 3.64,5.51 7.25,10.97 10.76,16.4 -5.46,9.71 -10.56,19.92 -15.31,30.64 -16.36,-8.14 -34.74,-12.04 -56.39,-6.27 -6.15,1.64 -11.16,6.11 -13.47,12.05 -2.32,5.93 -1.66,12.62 1.75,17.99 11,17.33 24.75,38.37 40.66,61.53 -38.32,176.4 7.15,450.37 194.3,508.52 93.64,29.09 207.35,13.4 296.76,-40.95 75.27,-45.74 124.52,-114.44 138.68,-193.44 5.04,-28.13 3.99,-137.97 -19.82,-168.41 -22.52,-28.81 -38.39,-44 -56.89,-42.18 -17.3,1.74 -24.86,16.9 -30.92,29.08 -4.02,8.07 -8.58,17.22 -15.63,24.2 -6.41,6.38 -12.04,12.93 -17.04,19.55 0.04,-0.07 0.08,-0.14 0.12,-0.22 18.22,-33.97 50.35,-125.88 -44.69,-245.37 -34.46,-43.32 -72.2,-76.28 -111.1,-97.84 31.4,-12.72 61.64,-3.87 100.73,7.56 24.88,7.29 53.09,15.54 84.49,18.03 157.21,12.24 403.23,-134.46 430.77,-296.08 0.44,-2.64 0.83,-5.3 1.13,-7.97 0.68,0.1 1.38,0.17 2.08,0.2 27.75,1.39 55.03,-0.08 81.38,-1.5 48.95,-2.64 85.94,-3.65 112.8,7.49 11.38,23.42 28.92,47.15 49.59,70.31 4.69,25.12 1.44,48.87 -2.18,75.39 -6.08,44.6 -12.98,95.16 22.4,157 42.17,73.68 102.66,138.06 161.15,200.33 54.5,58.01 110.85,117.99 150.27,183.86 11.59,19.38 23.42,40.94 35.95,63.77 38.9,70.93 78.81,143.68 123.93,172.88 48.37,124.66 178.86,269.79 302.18,345.59 108.46,66.66 204.41,78.51 270.25,33.36 50.75,-34.81 83.74,-82.87 115.67,-129.36 41.32,-60.16 80.34,-117 154.65,-141.52 98.82,-32.63 280.39,-5.36 357.6,77.38 53.89,57.74 70.18,144.59 63.44,239.57 -0.95,-6.78 -2.32,-12.99 -4.22,-18.56 -29.78,-87.7 -119.28,-145.85 -184,-181.97 -83.19,-46.44 -187.67,-94.87 -257.44,-57.24 -38.96,21.01 -54.04,57.32 -66.16,86.49 -17.61,42.43 -26.47,63.72 -86.09,49.89 -5.24,-1.22 -10.82,-0.25 -15.36,2.68 -4.55,2.94 -7.72,7.6 -8.77,12.91 -7.85,39.56 -5.14,78.8 -2.51,116.75 2.36,34.03 4.59,66.18 -1.46,93.9 -7.01,32.14 -27.11,58.03 -48.41,85.44 -21.64,27.85 -44.02,56.65 -53.84,93.89 -43.16,163.6 94.11,299.63 245.18,344.56 194.94,57.97 353.79,-2.19 414.53,-157.04 14.06,-35.88 34.71,-108.09 45.51,-185.75 3.84,4.4 8.23,8.25 13.23,11.47 53.79,34.65 126.63,-24.69 185.18,-72.38 22.05,-17.95 42.88,-34.92 56.92,-42.03 48.84,-24.75 100.64,-34.29 155.48,-44.39 34.24,-6.3 69.65,-12.82 104.86,-23.38 132.74,-39.81 314.46,-107.78 401.83,-244.76 93.54,-20.21 181.34,-54.62 236.74,-101.79 159.3,-135.74 195.9,-340.67 231.4,-538.85 33.6,-187.76 65.3,-365.11 199.7,-461.52 3.5,-2.54 6.1,-6.15 7.4,-10.31 27.1,-87.19 44.6,-166.42 -16.4,-253.18 -27.4,-38.85 -92.2,-100.77 -158.6,-112.09 -27.9,-4.76 -52.3,0.19 -72.7,14.7 -28.7,20.54 -32.6,60.65 -36,96.04 -1.5,15.89 -3,30.9 -6.4,40.15 -3.1,8.29 -12,23.75 -20.6,38.7 -15.3,26.48 -24.8,43.46 -27.5,56.02 -9.7,44.83 -3,88.57 3.5,130.84 6,38.92 12.2,79.15 6.1,121.84 -12.9,91.97 -63.3,181.04 -112.1,267.18 -27.1,47.81 -55,97.25 -76.4,146.78 -41.3,95.94 -81.6,171.17 -139.59,234.12 -62.07,-54.54 -120.9,-13.54 -172.9,22.7 -32.99,23 -67.1,46.77 -101.58,47.92 -40.83,1.38 -71.52,-9.95 -93.96,-34.57 -69.01,-75.72 -45.43,-262.12 -31.34,-373.49 2.46,-19.42 4.69,-37.04 6.22,-52.08 12.12,-118.46 -10.56,-202.91 -69.34,-258.18 -22.67,-21.32 -49.68,-37.13 -80.16,-48.5 10.91,-54.36 21.86,-107.19 34.95,-160.31 63.8,5.45 129.45,7.12 176.9,-13.38 5.6,-2.42 9.8,-7.28 11.38,-13.17 6.19,-23.01 5.79,-57.99 -31.17,-93.93 -22.09,-21.48 -54.61,-40.55 -93.67,-57.18 22.22,-49.58 43.64,-100.07 48.35,-144.78 7.7,-73.27 -21.99,-130.02 -50.71,-184.91 -14.5,-27.71 -29.49,-56.36 -39.68,-87.14 -22.3,-67.37 -35.94,-148.32 -47.98,-219.75 -4.02,-23.87 -7.92,-47 -11.97,-68.77 -13.35,-71.85 -19,-147.08 -24.45,-219.82 -9.96,-132.8 -20.26,-270.12 -77.56,-394.94 -37.37,-81.39 -205.61,-298.9 -317.49,-308.78 1.11,-13.26 2.3,-26.47 3.48,-39.6 8.31,-92.44 16.92,-188.01 -2.11,-281.35 -7.37,-36.17 -26.41,-73.06 -44.83,-108.74 -7.22,-13.98 -14.52,-28.12 -21.05,-42.14 37.66,-14.74 73.85,-44.9 114.34,-99.71 5.72,-7.74 5.12,-18.46 -1.45,-25.51 -25.18,-27.05 -60.14,-47.55 -100.82,-62.51 1.28,-2.21 2.59,-4.43 3.9,-6.66 74.99,-5.93 146.86,-25.93 216.53,-45.32 116.68,-32.47 226.91,-63.13 340.9,-26.93 71.11,22.57 135.17,60.31 197.12,96.83 45.48,26.8 92.51,54.52 142.62,76.57 165.12,72.68 310.92,45.4 465.32,16.49 190.3,-35.62 331.5,-142.8 468.1,-246.44 120.9,-91.73 245.9,-186.6 403.9,-229.67 48.5,-13.2 177.3,-48.27 244.1,-34.26 73.9,15.47 123.5,50.16 147.4,103.1 4.5,10.07 16.4,14.53 26.4,10.01 10.1,-4.54 14.6,-16.39 10,-26.46 -29.4,-65.24 -88.5,-107.57 -175.6,-125.8 -13.5,-2.83 -28.7,-4.09 -45,-4.09" /></g></g></svg>